<svg xmlns="http://www.w3.org/2000/svg" xmlns:xlink="http://www.w3.org/1999/xlink" width="500" zoomAndPan="magnify" viewBox="0 0 375 374.999991" height="500" preserveAspectRatio="xMidYMid meet" version="1.0"><defs><clipPath id="13bef1e920"><path d="M 3 77 L 183 77 L 183 356.78125 L 3 356.78125 Z M 3 77 " clip-rule="nonzero"/></clipPath></defs><rect x="-37.5" width="450" fill="#ffffff" y="-37.499999" height="449.999989" fill-opacity="1"/><rect x="-37.5" width="450" fill="#ffffff" y="-37.499999" height="449.999989" fill-opacity="1"/><path fill="#e03f3e" d="M 254.316406 164.828125 C 271.878906 164.828125 286.128906 150.574219 286.128906 133.015625 C 286.128906 115.433594 271.878906 101.183594 254.316406 101.183594 C 236.734375 101.183594 222.503906 115.433594 222.503906 133.015625 C 222.503906 150.574219 236.734375 164.828125 254.316406 164.828125 Z M 254.316406 164.828125 " fill-opacity="1" fill-rule="nonzero"/><path fill="#e03f3e" d="M 256.523438 19.535156 C 250.988281 19.332031 245.398438 19.515625 239.84375 20.125 C 316.558594 37.410156 315.277344 115.597656 304.609375 145.113281 C 304.554688 145.28125 304.480469 145.464844 304.425781 145.628906 C 299.773438 158.316406 292.125 172.035156 280.1875 179.226562 C 264.117188 188.878906 243.0625 183.4375 228.738281 173.140625 C 191.609375 146.457031 179.636719 89.523438 127.136719 83.824219 C 108.414062 81.800781 94.550781 90.167969 94.550781 90.167969 C 94.550781 90.167969 144.753906 108.738281 181.21875 187.167969 C 208.25 245.335938 202.585938 311.113281 195.746094 348.679688 C 232.15625 329.28125 268.933594 308.171875 297.75 278.527344 C 327.539062 247.890625 350.140625 208.609375 357.332031 166.1875 C 368.75 98.867188 331.3125 22.273438 256.523438 19.535156 Z M 256.523438 19.535156 " fill-opacity="1" fill-rule="nonzero"/><path fill="#e03f3e" d="M 125.773438 276.0625 C 114.117188 270.363281 104.664062 263.78125 91.222656 251.203125 C 107.863281 281.691406 142.34375 304.546875 181.21875 316.574219 C 181.21875 304.898438 178.550781 299.199219 167.757812 293.039062 C 154.644531 285.535156 139.308594 282.703125 125.773438 276.0625 Z M 125.773438 276.0625 " fill-opacity="1" fill-rule="nonzero"/><path fill="#e03f3e" d="M 98.816406 242.007812 C 115.347656 262.511719 141.039062 272.589844 169.449219 279.890625 C 169.449219 264.128906 153.027344 258.742188 142.914062 257.527344 C 120.570312 254.84375 98.816406 242.007812 98.816406 242.007812 Z M 98.816406 242.007812 " fill-opacity="1" fill-rule="nonzero"/><g clip-path="url(#13bef1e920)"><path fill="#e03f3e" d="M 124.136719 298.683594 C 102.75 283.859375 88.867188 270.324219 82.117188 245.207031 C 79.929688 237.078125 79.230469 227.222656 85.335938 221.410156 C 90.503906 216.480469 98.6875 216.519531 105.640625 218.191406 C 112.589844 219.867188 119.339844 222.882812 126.492188 222.9375 C 133.644531 222.972656 144.257812 219.808594 145.101562 212.695312 C 128.679688 194.710938 106.300781 182.261719 82.359375 177.792969 C 76.472656 176.6875 70.753906 175.640625 65.273438 174.113281 C 56.703125 171.761719 48.761719 168.246094 41.753906 161.589844 C 32.121094 152.453125 26.050781 140.261719 22.28125 127.679688 C 17.460938 111.628906 16.136719 94.304688 18.179688 77.515625 C 4.683594 103.941406 -0.0078125 135.992188 5.105469 166.1875 C 12.296875 208.613281 34.894531 247.890625 64.6875 278.527344 C 97.347656 312.125 140.246094 334.761719 181.21875 356.386719 C 187.339844 322.828125 159.023438 322.828125 124.136719 298.683594 Z M 124.136719 298.683594 " fill-opacity="1" fill-rule="nonzero"/></g><path fill="#803d3b" d="M 294.820312 63.34375 C 283.597656 42.859375 264.828125 29.523438 239.035156 23.710938 L 229.984375 21.671875 C 211.234375 25.472656 193.660156 34.308594 181.21875 49.304688 C 162.976562 27.332031 133.71875 18.523438 105.914062 19.535156 C 68.324219 20.910156 40.175781 40.9375 22.910156 69.074219 L 21.832031 77.957031 C 19.824219 94.453125 21.199219 111.28125 25.804688 126.625 C 29.90625 140.316406 36.125 151.179688 44.289062 158.921875 C 49.519531 163.894531 55.625 167.304688 63.808594 169.839844 C 61.59375 163.222656 59.753906 156.5 58.542969 149.621094 C 55.011719 129.851562 56.796875 108.464844 67.371094 91.378906 C 79.046875 72.496094 101.351562 60.707031 123.550781 61.699219 C 145.726562 62.691406 171.269531 76.082031 181.21875 95.921875 C 191.167969 76.082031 216.710938 62.695312 238.886719 61.699219 C 261.082031 60.707031 283.390625 72.496094 295.066406 91.378906 C 301.351562 101.527344 304.519531 113.195312 305.328125 125.136719 C 307.492188 107.167969 305.914062 83.59375 294.820312 63.34375 Z M 294.820312 63.34375 " fill-opacity="1" fill-rule="nonzero"/></svg>